<svg width="58" height="56" viewBox="0 0 58 56" fill="none" xmlns="http://www.w3.org/2000/svg">
<path d="M28.9079 30.7428C30.4312 30.7428 31.666 29.5148 31.666 28C31.666 26.4852 30.4312 25.2572 28.9079 25.2572C27.3846 25.2572 26.1497 26.4852 26.1497 28C26.1497 29.5148 27.3846 30.7428 28.9079 30.7428Z" fill="#61DAFB"/>
<path fill-rule="evenodd" clip-rule="evenodd" d="M15.9391 26.5568C15.3136 27.1183 15.108 27.6079 15.108 28C15.108 28.3922 15.3136 28.8817 15.9391 29.4432C16.5641 30.0043 17.5251 30.5554 18.7978 31.0387C21.3362 32.0025 24.9104 32.6195 28.9079 32.6195C32.9054 32.6195 36.4795 32.0025 39.018 31.0387C40.2907 30.5554 41.2516 30.0043 41.8766 29.4432C42.5021 28.8817 42.7077 28.3922 42.7077 28C42.7077 27.6079 42.5021 27.1183 41.8766 26.5568C41.2516 25.9957 40.2907 25.4446 39.018 24.9613C36.4795 23.9975 32.9054 23.3806 28.9079 23.3806C24.9104 23.3806 21.3362 23.9975 18.7978 24.9613C17.5251 25.4446 16.5641 25.9957 15.9391 26.5568ZM18.0878 23.0916C20.9059 22.0216 24.7316 21.3806 28.9079 21.3806C33.0841 21.3806 36.9098 22.0216 39.7279 23.0916C41.1334 23.6252 42.3399 24.285 43.2127 25.0685C44.085 25.8516 44.7077 26.8404 44.7077 28C44.7077 29.1596 44.085 30.1484 43.2127 30.9315C42.3399 31.715 41.1334 32.3748 39.7279 32.9084C36.9098 33.9784 33.0841 34.6195 28.9079 34.6195C24.7316 34.6195 20.9059 33.9784 18.0878 32.9084C16.6823 32.3748 15.4758 31.715 14.6031 30.9315C13.7307 30.1484 13.108 29.1596 13.108 28C13.108 26.8404 13.7307 25.8516 14.6031 25.0685C15.4758 24.285 16.6823 23.6252 18.0878 23.0916Z" fill="#61DAFB"/>
<path fill-rule="evenodd" clip-rule="evenodd" d="M23.6884 16.1116C22.8877 15.854 22.3558 15.9205 22.01 16.119C21.6643 16.3175 21.3405 16.7423 21.1645 17.5607C20.9884 18.3792 20.9889 19.4815 21.2043 20.8183C21.6339 23.4849 22.8832 26.8702 24.8813 30.3118C26.8794 33.7535 29.2029 36.522 31.3103 38.2252C32.3669 39.0791 33.3266 39.6307 34.1273 39.8883C34.928 40.1459 35.4599 40.0795 35.8057 39.881C36.1514 39.6825 36.4752 39.2576 36.6512 38.4393C36.8273 37.6208 36.8268 36.5185 36.6114 35.1816C36.1818 32.5151 34.9325 29.1298 32.9344 25.6882C30.9363 22.2465 28.6128 19.478 26.5054 17.7748C25.4489 16.9209 24.4891 16.3693 23.6884 16.1116ZM27.7661 16.2263C30.1081 18.1192 32.5801 21.0947 34.6689 24.6924C36.7576 28.29 38.1128 31.9067 38.5902 34.8701C38.8284 36.3483 38.857 37.718 38.611 38.8618C38.365 40.0056 37.8155 41.0333 36.8099 41.6106C35.8042 42.188 34.6346 42.1474 33.5154 41.7874C32.3963 41.4273 31.2178 40.7178 30.0496 39.7737C27.7076 37.8807 25.2356 34.9053 23.1468 31.3076C21.0581 27.71 19.7029 24.0933 19.2255 21.1299C18.9873 19.6517 18.9587 18.282 19.2047 17.1382C19.4507 15.9943 20.0002 14.9667 21.0058 14.3893C22.0115 13.812 23.1811 13.8526 24.3003 14.2126C25.4194 14.5726 26.5979 15.2822 27.7661 16.2263Z" fill="#61DAFB"/>
<path fill-rule="evenodd" clip-rule="evenodd" d="M36.6512 17.5607C36.4752 16.7423 36.1514 16.3175 35.8057 16.119C35.4599 15.9205 34.928 15.854 34.1273 16.1116C33.3266 16.3693 32.3669 16.9209 31.3103 17.7748C29.2029 19.478 26.8794 22.2465 24.8813 25.6882C22.8832 29.1298 21.6339 32.5151 21.2043 35.1816C20.9889 36.5185 20.9884 37.6208 21.1645 38.4393C21.3405 39.2576 21.6643 39.6825 22.01 39.881C22.3558 40.0795 22.8877 40.1459 23.6884 39.8883C24.4891 39.6307 25.4488 39.0791 26.5054 38.2252C28.6128 36.522 30.9363 33.7535 32.9344 30.3118C34.9325 26.8702 36.1818 23.4849 36.6114 20.8183C36.8268 19.4815 36.8273 18.3792 36.6512 17.5607ZM38.5902 21.1299C38.1128 24.0933 36.7576 27.71 34.6689 31.3076C32.5801 34.9053 30.1081 37.8807 27.7661 39.7737C26.5979 40.7178 25.4194 41.4273 24.3003 41.7874C23.1811 42.1474 22.0115 42.188 21.0058 41.6106C20.0002 41.0333 19.4507 40.0056 19.2047 38.8618C18.9587 37.718 18.9873 36.3483 19.2255 34.8701C19.7029 31.9067 21.0581 28.29 23.1468 24.6924C25.2356 21.0947 27.7076 18.1192 30.0496 16.2263C31.2178 15.2822 32.3963 14.5726 33.5154 14.2126C34.6346 13.8526 35.8042 13.812 36.8099 14.3894C37.8155 14.9667 38.365 15.9943 38.611 17.1382C38.857 18.282 38.8284 19.6517 38.5902 21.1299Z" fill="#61DAFB"/>
</svg>
