<svg width="249" height="48" viewBox="0 0 249 48" fill="none" xmlns="http://www.w3.org/2000/svg">
<path d="M16.5 11L5 17.5L9 19.7609M33.5 11L45 17.5L41 19.7609M9 19.7609L16.5 24M9 19.7609V30.9565L25 40L41 30.9565V19.7609M41 19.7609L33.5 24M22.5 26L27.5 8" stroke="#6533E2" stroke-width="4"/>
<path d="M59.1364 31.2131C58.0189 31.2131 57.0578 30.9763 56.2528 30.5028C55.4527 30.0246 54.8371 29.3617 54.4062 28.5142C53.9801 27.6667 53.767 26.6913 53.767 25.5881C53.767 24.4706 53.9825 23.4905 54.4134 22.6477C54.849 21.8002 55.4669 21.1397 56.267 20.6662C57.0672 20.188 58.0189 19.9489 59.1222 19.9489C60.0739 19.9489 60.9072 20.1217 61.6222 20.4673C62.3371 20.813 62.9029 21.2983 63.3196 21.9233C63.7363 22.5483 63.9659 23.2822 64.0085 24.125H61.1534C61.0729 23.5805 60.8598 23.1425 60.5142 22.8111C60.1733 22.4749 59.7259 22.3068 59.1719 22.3068C58.7031 22.3068 58.2936 22.4347 57.9432 22.6903C57.5975 22.9413 57.3277 23.3082 57.1335 23.7912C56.9394 24.2741 56.8423 24.8589 56.8423 25.5455C56.8423 26.2415 56.937 26.8333 57.1264 27.321C57.3205 27.8087 57.5928 28.1804 57.9432 28.4361C58.2936 28.6918 58.7031 28.8196 59.1719 28.8196C59.5175 28.8196 59.8277 28.7486 60.1023 28.6065C60.3816 28.4645 60.6113 28.2585 60.7912 27.9886C60.9759 27.714 61.0966 27.3849 61.1534 27.0014H64.0085C63.9612 27.8348 63.7339 28.5687 63.3267 29.2031C62.9242 29.8329 62.3679 30.3253 61.6577 30.6804C60.9474 31.0355 60.107 31.2131 59.1364 31.2131ZM70.8746 31.2131C69.7714 31.2131 68.8174 30.9787 68.0124 30.5099C67.2122 30.0365 66.5943 29.3783 66.1587 28.5355C65.7231 27.688 65.5053 26.7055 65.5053 25.5881C65.5053 24.4612 65.7231 23.4763 66.1587 22.6335C66.5943 21.786 67.2122 21.1278 68.0124 20.6591C68.8174 20.1856 69.7714 19.9489 70.8746 19.9489C71.9779 19.9489 72.9296 20.1856 73.7298 20.6591C74.5347 21.1278 75.1549 21.786 75.5906 22.6335C76.0262 23.4763 76.244 24.4612 76.244 25.5881C76.244 26.7055 76.0262 27.688 75.5906 28.5355C75.1549 29.3783 74.5347 30.0365 73.7298 30.5099C72.9296 30.9787 71.9779 31.2131 70.8746 31.2131ZM70.8888 28.8693C71.3907 28.8693 71.8098 28.7273 72.146 28.4432C72.4821 28.1544 72.7354 27.7614 72.9059 27.2642C73.0811 26.767 73.1687 26.2012 73.1687 25.5668C73.1687 24.9323 73.0811 24.3665 72.9059 23.8693C72.7354 23.3722 72.4821 22.9792 72.146 22.6903C71.8098 22.4015 71.3907 22.2571 70.8888 22.2571C70.3822 22.2571 69.9561 22.4015 69.6104 22.6903C69.2695 22.9792 69.0115 23.3722 68.8363 23.8693C68.6658 24.3665 68.5806 24.9323 68.5806 25.5668C68.5806 26.2012 68.6658 26.767 68.8363 27.2642C69.0115 27.7614 69.2695 28.1544 69.6104 28.4432C69.9561 28.7273 70.3822 28.8693 70.8888 28.8693ZM82.2312 31.1776C81.4026 31.1776 80.6521 30.9645 79.9798 30.5384C79.3121 30.1075 78.7818 29.4754 78.3888 28.642C78.0006 27.804 77.8065 26.7765 77.8065 25.5597C77.8065 24.3097 78.0077 23.2704 78.4102 22.4418C78.8126 21.6084 79.3477 20.9858 80.0153 20.5739C80.6876 20.1572 81.4239 19.9489 82.2241 19.9489C82.8349 19.9489 83.3439 20.053 83.7511 20.2614C84.163 20.465 84.4944 20.7206 84.7454 21.0284C85.0011 21.3314 85.1952 21.6297 85.3278 21.9233H85.4201V16.4545H88.4386V31H85.4556V29.2528H85.3278C85.1857 29.5559 84.9845 29.8565 84.7241 30.1548C84.4684 30.4484 84.1346 30.6922 83.7227 30.8864C83.3155 31.0805 82.8183 31.1776 82.2312 31.1776ZM83.19 28.7699C83.6777 28.7699 84.0896 28.6373 84.4258 28.3722C84.7667 28.1023 85.0271 27.7259 85.207 27.2429C85.3917 26.7599 85.484 26.1941 85.484 25.5455C85.484 24.8968 85.3941 24.3333 85.2141 23.8551C85.0342 23.3769 84.7738 23.0076 84.4329 22.7472C84.092 22.4867 83.6777 22.3565 83.19 22.3565C82.6928 22.3565 82.2738 22.4915 81.9329 22.7614C81.592 23.0312 81.3339 23.4053 81.1587 23.8835C80.9835 24.3617 80.896 24.9157 80.896 25.5455C80.896 26.1799 80.9835 26.741 81.1587 27.2287C81.3387 27.7116 81.5967 28.0904 81.9329 28.3651C82.2738 28.6349 82.6928 28.7699 83.19 28.7699ZM95.8977 31.2131C94.7756 31.2131 93.8097 30.9858 93 30.5312C92.1951 30.072 91.5748 29.4233 91.1392 28.5852C90.7036 27.7424 90.4858 26.7457 90.4858 25.5952C90.4858 24.473 90.7036 23.4882 91.1392 22.6406C91.5748 21.7931 92.188 21.1326 92.9787 20.6591C93.7741 20.1856 94.7069 19.9489 95.777 19.9489C96.4967 19.9489 97.1667 20.0649 97.7869 20.2969C98.4119 20.5241 98.9564 20.8674 99.4205 21.3267C99.8892 21.786 100.254 22.3636 100.514 23.0597C100.775 23.7509 100.905 24.5606 100.905 25.4886V26.3196H91.6932V24.4446H98.0568C98.0568 24.009 97.9621 23.6231 97.7727 23.2869C97.5833 22.9508 97.3205 22.688 96.9844 22.4986C96.6529 22.3045 96.267 22.2074 95.8267 22.2074C95.3674 22.2074 94.9602 22.3139 94.6051 22.527C94.2547 22.7353 93.9801 23.017 93.7812 23.3722C93.5824 23.7225 93.4806 24.1132 93.4759 24.544V26.3267C93.4759 26.8665 93.5753 27.3329 93.7741 27.7259C93.9777 28.1188 94.2642 28.4219 94.6335 28.6349C95.0028 28.848 95.4408 28.9545 95.9474 28.9545C96.2836 28.9545 96.5914 28.9072 96.8707 28.8125C97.1501 28.7178 97.3892 28.5758 97.5881 28.3864C97.7869 28.197 97.9384 27.965 98.0426 27.6903L100.841 27.875C100.699 28.5473 100.408 29.1345 99.9673 29.6364C99.5317 30.1335 98.9683 30.5218 98.277 30.8011C97.5904 31.0758 96.7973 31.2131 95.8977 31.2131ZM107.808 31.2131C106.691 31.2131 105.73 30.9763 104.925 30.5028C104.125 30.0246 103.509 29.3617 103.078 28.5142C102.652 27.6667 102.439 26.6913 102.439 25.5881C102.439 24.4706 102.654 23.4905 103.085 22.6477C103.521 21.8002 104.139 21.1397 104.939 20.6662C105.739 20.188 106.691 19.9489 107.794 19.9489C108.746 19.9489 109.579 20.1217 110.294 20.4673C111.009 20.813 111.575 21.2983 111.991 21.9233C112.408 22.5483 112.638 23.2822 112.68 24.125H109.825C109.745 23.5805 109.532 23.1425 109.186 22.8111C108.845 22.4749 108.398 22.3068 107.844 22.3068C107.375 22.3068 106.965 22.4347 106.615 22.6903C106.269 22.9413 106 23.3082 105.805 23.7912C105.611 24.2741 105.514 24.8589 105.514 25.5455C105.514 26.2415 105.609 26.8333 105.798 27.321C105.992 27.8087 106.265 28.1804 106.615 28.4361C106.965 28.6918 107.375 28.8196 107.844 28.8196C108.189 28.8196 108.5 28.7486 108.774 28.6065C109.054 28.4645 109.283 28.2585 109.463 27.9886C109.648 27.714 109.768 27.3849 109.825 27.0014H112.68C112.633 27.8348 112.406 28.5687 111.999 29.2031C111.596 29.8329 111.04 30.3253 110.33 30.6804C109.619 31.0355 108.779 31.2131 107.808 31.2131ZM119.547 31.2131C118.443 31.2131 117.489 30.9787 116.684 30.5099C115.884 30.0365 115.266 29.3783 114.831 28.5355C114.395 27.688 114.177 26.7055 114.177 25.5881C114.177 24.4612 114.395 23.4763 114.831 22.6335C115.266 21.786 115.884 21.1278 116.684 20.6591C117.489 20.1856 118.443 19.9489 119.547 19.9489C120.65 19.9489 121.601 20.1856 122.402 20.6591C123.207 21.1278 123.827 21.786 124.262 22.6335C124.698 23.4763 124.916 24.4612 124.916 25.5881C124.916 26.7055 124.698 27.688 124.262 28.5355C123.827 29.3783 123.207 30.0365 122.402 30.5099C121.601 30.9787 120.65 31.2131 119.547 31.2131ZM119.561 28.8693C120.063 28.8693 120.482 28.7273 120.818 28.4432C121.154 28.1544 121.407 27.7614 121.578 27.2642C121.753 26.767 121.841 26.2012 121.841 25.5668C121.841 24.9323 121.753 24.3665 121.578 23.8693C121.407 23.3722 121.154 22.9792 120.818 22.6903C120.482 22.4015 120.063 22.2571 119.561 22.2571C119.054 22.2571 118.628 22.4015 118.282 22.6903C117.941 22.9792 117.683 23.3722 117.508 23.8693C117.338 24.3665 117.252 24.9323 117.252 25.5668C117.252 26.2012 117.338 26.767 117.508 27.2642C117.683 27.7614 117.941 28.1544 118.282 28.4432C118.628 28.7273 119.054 28.8693 119.561 28.8693ZM130.903 31.1776C130.074 31.1776 129.324 30.9645 128.652 30.5384C127.984 30.1075 127.454 29.4754 127.061 28.642C126.672 27.804 126.478 26.7765 126.478 25.5597C126.478 24.3097 126.68 23.2704 127.082 22.4418C127.484 21.6084 128.02 20.9858 128.687 20.5739C129.359 20.1572 130.096 19.9489 130.896 19.9489C131.507 19.9489 132.016 20.053 132.423 20.2614C132.835 20.465 133.166 20.7206 133.417 21.0284C133.673 21.3314 133.867 21.6297 134 21.9233H134.092V16.4545H137.11V31H134.127V29.2528H134C133.858 29.5559 133.656 29.8565 133.396 30.1548C133.14 30.4484 132.806 30.6922 132.395 30.8864C131.987 31.0805 131.49 31.1776 130.903 31.1776ZM131.862 28.7699C132.35 28.7699 132.761 28.6373 133.098 28.3722C133.439 28.1023 133.699 27.7259 133.879 27.2429C134.064 26.7599 134.156 26.1941 134.156 25.5455C134.156 24.8968 134.066 24.3333 133.886 23.8551C133.706 23.3769 133.446 23.0076 133.105 22.7472C132.764 22.4867 132.35 22.3565 131.862 22.3565C131.365 22.3565 130.946 22.4915 130.605 22.7614C130.264 23.0312 130.006 23.4053 129.831 23.8835C129.655 24.3617 129.568 24.9157 129.568 25.5455C129.568 26.1799 129.655 26.741 129.831 27.2287C130.011 27.7116 130.269 28.0904 130.605 28.3651C130.946 28.6349 131.365 28.7699 131.862 28.7699ZM144.57 31.2131C143.447 31.2131 142.482 30.9858 141.672 30.5312C140.867 30.072 140.247 29.4233 139.811 28.5852C139.375 27.7424 139.158 26.7457 139.158 25.5952C139.158 24.473 139.375 23.4882 139.811 22.6406C140.247 21.7931 140.86 21.1326 141.651 20.6591C142.446 20.1856 143.379 19.9489 144.449 19.9489C145.169 19.9489 145.839 20.0649 146.459 20.2969C147.084 20.5241 147.628 20.8674 148.092 21.3267C148.561 21.786 148.926 22.3636 149.186 23.0597C149.446 23.7509 149.577 24.5606 149.577 25.4886V26.3196H140.365V24.4446H146.729C146.729 24.009 146.634 23.6231 146.445 23.2869C146.255 22.9508 145.992 22.688 145.656 22.4986C145.325 22.3045 144.939 22.2074 144.499 22.2074C144.039 22.2074 143.632 22.3139 143.277 22.527C142.927 22.7353 142.652 23.017 142.453 23.3722C142.254 23.7225 142.152 24.1132 142.148 24.544V26.3267C142.148 26.8665 142.247 27.3329 142.446 27.7259C142.65 28.1188 142.936 28.4219 143.305 28.6349C143.675 28.848 144.113 28.9545 144.619 28.9545C144.955 28.9545 145.263 28.9072 145.543 28.8125C145.822 28.7178 146.061 28.5758 146.26 28.3864C146.459 28.197 146.61 27.965 146.714 27.6903L149.513 27.875C149.371 28.5473 149.08 29.1345 148.639 29.6364C148.204 30.1335 147.64 30.5218 146.949 30.8011C146.262 31.0758 145.469 31.2131 144.57 31.2131Z" fill="#2E3A48"/>
<path d="M153.32 31.1847C152.851 31.1847 152.448 31.0189 152.112 30.6875C151.781 30.3513 151.615 29.9489 151.615 29.4801C151.615 29.0161 151.781 28.6184 152.112 28.2869C152.448 27.9555 152.851 27.7898 153.32 27.7898C153.774 27.7898 154.172 27.9555 154.513 28.2869C154.854 28.6184 155.024 29.0161 155.024 29.4801C155.024 29.7926 154.944 30.0791 154.783 30.3395C154.626 30.5952 154.42 30.8011 154.165 30.9574C153.909 31.1089 153.627 31.1847 153.32 31.1847ZM160.619 31.206C159.923 31.206 159.303 31.0852 158.758 30.8438C158.214 30.5975 157.783 30.2353 157.466 29.7571C157.153 29.2741 156.997 28.6728 156.997 27.9531C156.997 27.3471 157.108 26.8381 157.331 26.4261C157.553 26.0142 157.856 25.6828 158.24 25.4318C158.623 25.1809 159.059 24.9915 159.547 24.8636C160.039 24.7358 160.555 24.6458 161.095 24.5938C161.729 24.5275 162.241 24.4659 162.629 24.4091C163.017 24.3475 163.299 24.2576 163.474 24.1392C163.649 24.0208 163.737 23.8456 163.737 23.6136V23.571C163.737 23.1212 163.595 22.7732 163.311 22.527C163.031 22.2808 162.634 22.1577 162.118 22.1577C161.573 22.1577 161.14 22.2784 160.818 22.5199C160.496 22.7566 160.283 23.0549 160.179 23.4148L157.38 23.1875C157.522 22.5246 157.802 21.9517 158.218 21.4688C158.635 20.9811 159.172 20.607 159.831 20.3466C160.493 20.0814 161.261 19.9489 162.132 19.9489C162.738 19.9489 163.318 20.0199 163.872 20.1619C164.431 20.304 164.925 20.5241 165.356 20.8224C165.792 21.1207 166.135 21.5043 166.386 21.973C166.637 22.437 166.762 22.9934 166.762 23.642V31H163.893V29.4872H163.808C163.633 29.8281 163.398 30.1288 163.105 30.3892C162.811 30.6449 162.458 30.8461 162.047 30.9929C161.635 31.1349 161.159 31.206 160.619 31.206ZM161.485 29.1179C161.931 29.1179 162.324 29.0303 162.664 28.8551C163.005 28.6752 163.273 28.4337 163.467 28.1307C163.661 27.8277 163.758 27.4844 163.758 27.1009V25.9432C163.663 26.0047 163.533 26.0616 163.368 26.1136C163.207 26.161 163.024 26.206 162.821 26.2486C162.617 26.2865 162.413 26.322 162.21 26.3551C162.006 26.3835 161.822 26.4096 161.656 26.4332C161.301 26.4853 160.991 26.5682 160.725 26.6818C160.46 26.7955 160.254 26.9493 160.108 27.1435C159.961 27.3329 159.887 27.5696 159.887 27.8537C159.887 28.2656 160.037 28.5805 160.335 28.7983C160.638 29.0114 161.021 29.1179 161.485 29.1179ZM174.039 31.2131C172.921 31.2131 171.96 30.9763 171.155 30.5028C170.355 30.0246 169.739 29.3617 169.309 28.5142C168.882 27.6667 168.669 26.6913 168.669 25.5881C168.669 24.4706 168.885 23.4905 169.316 22.6477C169.751 21.8002 170.369 21.1397 171.169 20.6662C171.97 20.188 172.921 19.9489 174.025 19.9489C174.976 19.9489 175.81 20.1217 176.525 20.4673C177.239 20.813 177.805 21.2983 178.222 21.9233C178.639 22.5483 178.868 23.2822 178.911 24.125H176.056C175.975 23.5805 175.762 23.1425 175.417 22.8111C175.076 22.4749 174.628 22.3068 174.074 22.3068C173.605 22.3068 173.196 22.4347 172.846 22.6903C172.5 22.9413 172.23 23.3082 172.036 23.7912C171.842 24.2741 171.745 24.8589 171.745 25.5455C171.745 26.2415 171.839 26.8333 172.029 27.321C172.223 27.8087 172.495 28.1804 172.846 28.4361C173.196 28.6918 173.605 28.8196 174.074 28.8196C174.42 28.8196 174.73 28.7486 175.005 28.6065C175.284 28.4645 175.514 28.2585 175.694 27.9886C175.878 27.714 175.999 27.3849 176.056 27.0014H178.911C178.864 27.8348 178.636 28.5687 178.229 29.2031C177.827 29.8329 177.27 30.3253 176.56 30.6804C175.85 31.0355 175.009 31.2131 174.039 31.2131ZM183.959 31.206C183.263 31.206 182.643 31.0852 182.098 30.8438C181.554 30.5975 181.123 30.2353 180.805 29.7571C180.493 29.2741 180.337 28.6728 180.337 27.9531C180.337 27.3471 180.448 26.8381 180.67 26.4261C180.893 26.0142 181.196 25.6828 181.58 25.4318C181.963 25.1809 182.399 24.9915 182.886 24.8636C183.379 24.7358 183.895 24.6458 184.435 24.5938C185.069 24.5275 185.58 24.4659 185.969 24.4091C186.357 24.3475 186.639 24.2576 186.814 24.1392C186.989 24.0208 187.077 23.8456 187.077 23.6136V23.571C187.077 23.1212 186.935 22.7732 186.651 22.527C186.371 22.2808 185.973 22.1577 185.457 22.1577C184.913 22.1577 184.48 22.2784 184.158 22.5199C183.836 22.7566 183.623 23.0549 183.518 23.4148L180.72 23.1875C180.862 22.5246 181.142 21.9517 181.558 21.4688C181.975 20.9811 182.512 20.607 183.17 20.3466C183.833 20.0814 184.6 19.9489 185.472 19.9489C186.078 19.9489 186.658 20.0199 187.212 20.1619C187.77 20.304 188.265 20.5241 188.696 20.8224C189.132 21.1207 189.475 21.5043 189.726 21.973C189.977 22.437 190.102 22.9934 190.102 23.642V31H187.233V29.4872H187.148C186.973 29.8281 186.738 30.1288 186.445 30.3892C186.151 30.6449 185.798 30.8461 185.386 30.9929C184.974 31.1349 184.499 31.206 183.959 31.206ZM184.825 29.1179C185.27 29.1179 185.663 29.0303 186.004 28.8551C186.345 28.6752 186.613 28.4337 186.807 28.1307C187.001 27.8277 187.098 27.4844 187.098 27.1009V25.9432C187.003 26.0047 186.873 26.0616 186.707 26.1136C186.546 26.161 186.364 26.206 186.161 26.2486C185.957 26.2865 185.753 26.322 185.55 26.3551C185.346 26.3835 185.161 26.4096 184.996 26.4332C184.641 26.4853 184.33 26.5682 184.065 26.6818C183.8 26.7955 183.594 26.9493 183.447 27.1435C183.301 27.3329 183.227 27.5696 183.227 27.8537C183.227 28.2656 183.376 28.5805 183.675 28.7983C183.978 29.0114 184.361 29.1179 184.825 29.1179ZM196.469 31.1776C195.641 31.1776 194.89 30.9645 194.218 30.5384C193.55 30.1075 193.02 29.4754 192.627 28.642C192.239 27.804 192.045 26.7765 192.045 25.5597C192.045 24.3097 192.246 23.2704 192.648 22.4418C193.051 21.6084 193.586 20.9858 194.254 20.5739C194.926 20.1572 195.662 19.9489 196.462 19.9489C197.073 19.9489 197.582 20.053 197.989 20.2614C198.401 20.465 198.733 20.7206 198.984 21.0284C199.239 21.3314 199.433 21.6297 199.566 21.9233H199.658V16.4545H202.677V31H199.694V29.2528H199.566C199.424 29.5559 199.223 29.8565 198.962 30.1548C198.707 30.4484 198.373 30.6922 197.961 30.8864C197.554 31.0805 197.057 31.1776 196.469 31.1776ZM197.428 28.7699C197.916 28.7699 198.328 28.6373 198.664 28.3722C199.005 28.1023 199.265 27.7259 199.445 27.2429C199.63 26.7599 199.722 26.1941 199.722 25.5455C199.722 24.8968 199.632 24.3333 199.452 23.8551C199.272 23.3769 199.012 23.0076 198.671 22.7472C198.33 22.4867 197.916 22.3565 197.428 22.3565C196.931 22.3565 196.512 22.4915 196.171 22.7614C195.83 23.0312 195.572 23.4053 195.397 23.8835C195.222 24.3617 195.134 24.9157 195.134 25.5455C195.134 26.1799 195.222 26.741 195.397 27.2287C195.577 27.7116 195.835 28.0904 196.171 28.3651C196.512 28.6349 196.931 28.7699 197.428 28.7699ZM210.136 31.2131C209.014 31.2131 208.048 30.9858 207.238 30.5312C206.433 30.072 205.813 29.4233 205.377 28.5852C204.942 27.7424 204.724 26.7457 204.724 25.5952C204.724 24.473 204.942 23.4882 205.377 22.6406C205.813 21.7931 206.426 21.1326 207.217 20.6591C208.012 20.1856 208.945 19.9489 210.015 19.9489C210.735 19.9489 211.405 20.0649 212.025 20.2969C212.65 20.5241 213.195 20.8674 213.659 21.3267C214.127 21.786 214.492 22.3636 214.752 23.0597C215.013 23.7509 215.143 24.5606 215.143 25.4886V26.3196H205.931V24.4446H212.295C212.295 24.009 212.2 23.6231 212.011 23.2869C211.822 22.9508 211.559 22.688 211.223 22.4986C210.891 22.3045 210.505 22.2074 210.065 22.2074C209.606 22.2074 209.199 22.3139 208.843 22.527C208.493 22.7353 208.218 23.017 208.02 23.3722C207.821 23.7225 207.719 24.1132 207.714 24.544V26.3267C207.714 26.8665 207.814 27.3329 208.012 27.7259C208.216 28.1188 208.502 28.4219 208.872 28.6349C209.241 28.848 209.679 28.9545 210.186 28.9545C210.522 28.9545 210.83 28.9072 211.109 28.8125C211.388 28.7178 211.627 28.5758 211.826 28.3864C212.025 28.197 212.177 27.965 212.281 27.6903L215.079 27.875C214.937 28.5473 214.646 29.1345 214.206 29.6364C213.77 30.1335 213.207 30.5218 212.515 30.8011C211.829 31.0758 211.036 31.2131 210.136 31.2131ZM217.118 31V20.0909H220.001V22.0156H220.129C220.356 21.3764 220.735 20.8722 221.265 20.5028C221.796 20.1335 222.43 19.9489 223.169 19.9489C223.917 19.9489 224.554 20.1359 225.079 20.5099C225.605 20.8793 225.955 21.3812 226.13 22.0156H226.244C226.467 21.3906 226.869 20.8911 227.451 20.517C228.038 20.1383 228.732 19.9489 229.532 19.9489C230.55 19.9489 231.377 20.2732 232.011 20.9219C232.65 21.5658 232.97 22.4796 232.97 23.6634V31H229.951V24.2599C229.951 23.6539 229.79 23.1993 229.468 22.8963C229.146 22.5933 228.744 22.4418 228.261 22.4418C227.712 22.4418 227.283 22.617 226.975 22.9673C226.668 23.313 226.514 23.7699 226.514 24.3381V31H223.581V24.196C223.581 23.661 223.427 23.2348 223.119 22.9176C222.816 22.6004 222.416 22.4418 221.919 22.4418C221.583 22.4418 221.279 22.527 221.01 22.6974C220.744 22.8632 220.534 23.0975 220.377 23.4006C220.221 23.6989 220.143 24.0492 220.143 24.4517V31H217.118ZM236.837 35.0909C236.453 35.0909 236.094 35.0601 235.757 34.9986C235.426 34.9418 235.151 34.8684 234.934 34.7784L235.615 32.5199C235.971 32.6288 236.29 32.688 236.574 32.6974C236.863 32.7069 237.112 32.6406 237.32 32.4986C237.533 32.3565 237.706 32.1151 237.838 31.7741L238.016 31.3125L234.103 20.0909H237.284L239.543 28.1023H239.657L241.936 20.0909H245.14L240.9 32.179C240.696 32.7661 240.419 33.2775 240.069 33.7131C239.723 34.1534 239.285 34.492 238.755 34.7287C238.224 34.9702 237.585 35.0909 236.837 35.0909Z" fill="#6533E2"/>
</svg>
