<svg width="202" height="202" viewBox="0 0 202 202" fill="none" xmlns="http://www.w3.org/2000/svg">
<path d="M104.255 196.785V198H97.8723V196.785H100.345V190H101.782V196.785H104.255Z" fill="#C6CED9"/>
<path d="M92.8784 189.649L94.4148 189.829L90.6887 197.448L88.9117 197.24L87.0392 188.967L88.5756 189.147L89.9596 195.711L90.0217 195.718L92.8784 189.649ZM92.4638 192.759L88.2736 192.269L88.4087 191.113L92.5989 191.603L92.4638 192.759Z" fill="#C6CED9"/>
<path d="M75.0074 194.512L76.8523 186.728L78.1067 187.025L80.5179 193.197L80.5825 193.212L81.8392 187.91L83.2494 188.244L81.4044 196.028L80.1425 195.729L77.736 189.555L77.6675 189.538L76.41 194.844L75.0074 194.512Z" fill="#C6CED9"/>
<path d="M65.726 191.364L64.3642 190.869L66.1518 185.957C66.3477 185.419 66.6473 184.992 67.0506 184.676C67.4514 184.359 67.9224 184.168 68.4638 184.105C69.0042 184.044 69.5803 184.125 70.1921 184.347C70.8063 184.571 71.3008 184.88 71.6756 185.274C72.0495 185.671 72.2881 186.119 72.3914 186.619C72.4947 187.12 72.4484 187.639 72.2524 188.178L70.4648 193.089L69.103 192.593L70.8492 187.796C70.9632 187.483 70.9962 187.179 70.9483 186.884C70.8978 186.589 70.772 186.325 70.5707 186.094C70.3685 185.865 70.0949 185.688 69.7499 185.562C69.4048 185.437 69.0813 185.397 68.7794 185.442C68.4741 185.489 68.2085 185.61 67.9823 185.805C67.7562 185.999 67.5862 186.253 67.4722 186.567L65.726 191.364Z" fill="#C6CED9"/>
<path d="M62.7505 181.353L59.1601 188.502L57.865 187.852L60.9102 181.788L57.7615 180.207L58.3068 179.121L62.7505 181.353Z" fill="#C6CED9"/>
<path d="M46.4665 176.404C46.9402 175.684 47.4808 175.156 48.0883 174.82C48.6922 174.485 49.3153 174.334 49.9576 174.366C50.5978 174.398 51.2105 174.606 51.7957 174.991C52.381 175.376 52.8159 175.857 53.1005 176.433C53.3814 177.011 53.4887 177.644 53.4222 178.333C53.3521 179.022 53.0809 179.726 52.6087 180.444C52.135 181.164 51.5962 181.692 50.9923 182.027C50.3848 182.363 49.761 182.516 49.1208 182.484C48.4785 182.451 47.8647 182.243 47.2795 181.858C46.6942 181.473 46.2604 180.992 45.978 180.417C45.6934 179.84 45.5862 179.207 45.6563 178.518C45.7228 177.829 45.9929 177.125 46.4665 176.404ZM47.6839 177.205C47.3504 177.712 47.1487 178.192 47.0785 178.644C47.0048 179.098 47.0485 179.505 47.2096 179.867C47.3694 180.23 47.6309 180.532 47.9942 180.771C48.3576 181.01 48.7379 181.131 49.1352 181.133C49.531 181.138 49.9235 181.017 50.3128 180.772C50.6984 180.526 51.0579 180.15 51.3913 179.643C51.7248 179.137 51.9283 178.656 52.0021 178.203C52.0722 177.75 52.0274 177.342 51.8677 176.979C51.7065 176.617 51.4443 176.317 51.0809 176.078C50.7176 175.839 50.338 175.717 49.9422 175.712C49.5449 175.71 49.1534 175.831 48.7678 176.076C48.3786 176.322 48.0173 176.698 47.6839 177.205ZM47.3596 182.724L45.6476 183.734L44.4923 182.975L46.4752 182.142L47.3596 182.724Z" fill="#C6CED9"/>
<path d="M46.1005 171.063L40.9582 177.192L39.848 176.26L42.2108 173.444L42.136 173.382L37.3823 174.191L36.0268 173.054L40.7043 172.292L41.1482 166.908L42.4827 168.028L42.1065 172.189L43.4587 171.957L44.9903 170.132L46.1005 171.063Z" fill="#C6CED9"/>
<path d="M25.761 162.29L24.702 160.867L27.9336 155.5L27.8776 155.425L21.8095 156.982L20.7505 155.559L27.1675 150.782L27.9979 151.898L23.5894 155.18L23.6337 155.239L29.3437 153.744L29.9642 154.578L26.8853 159.626L26.9297 159.686L31.3476 156.397L32.178 157.512L25.761 162.29Z" fill="#C6CED9"/>
<path d="M18.4322 143.882C19.1787 143.451 19.8988 143.221 20.5925 143.194C21.2827 143.165 21.9074 143.31 22.4666 143.627C23.0246 143.943 23.4787 144.404 23.8289 145.01C24.1792 145.617 24.3521 146.242 24.3475 146.885C24.3394 147.527 24.151 148.141 23.7825 148.727C23.4104 149.311 22.8523 149.819 22.108 150.248C21.3615 150.679 20.6432 150.909 19.9531 150.938C19.2593 150.965 18.6335 150.821 18.0756 150.506C17.5163 150.188 17.0616 149.726 16.7113 149.12C16.361 148.513 16.1888 147.889 16.1947 147.248C16.1993 146.605 16.3876 145.991 16.7597 145.407C17.1282 144.821 17.6857 144.313 18.4322 143.882ZM19.1607 145.143C18.6353 145.447 18.2396 145.785 17.9738 146.158C17.7045 146.53 17.5607 146.914 17.5424 147.309C17.5219 147.706 17.6204 148.093 17.8378 148.469C18.0553 148.846 18.3409 149.124 18.6948 149.305C19.0464 149.487 19.4512 149.555 19.9094 149.51C20.364 149.464 20.854 149.29 21.3795 148.986C21.905 148.683 22.3024 148.345 22.5717 147.973C22.8375 147.6 22.9807 147.215 23.0012 146.819C23.0195 146.423 22.9199 146.037 22.7024 145.661C22.485 145.284 22.2005 145.005 21.8489 144.823C21.495 144.642 21.0908 144.575 20.6362 144.621C20.178 144.666 19.6862 144.84 19.1607 145.143Z" fill="#C6CED9"/>
<path d="M10.4949 135.943L17.8407 132.774L18.3512 133.958L14.8407 139.577L14.867 139.638L19.8706 137.48L20.4446 138.811L13.0988 141.979L12.5852 140.789L16.1008 135.171L16.073 135.107L11.0658 137.266L10.4949 135.943Z" fill="#C6CED9"/>
<path d="M15.9398 126.99L16.7173 129.587L9.05342 131.882L8.26023 129.232C8.03243 128.472 7.99017 127.772 8.13346 127.134C8.27351 126.494 8.58511 125.941 9.06828 125.476C9.55145 125.01 10.191 124.658 10.9868 124.42C11.7851 124.181 12.5156 124.124 13.1783 124.249C13.8402 124.372 14.4079 124.665 14.8813 125.13C15.354 125.592 15.7068 126.212 15.9398 126.99ZM15.1005 128.559L14.7588 127.417C14.5989 126.884 14.3683 126.467 14.0669 126.169C13.763 125.871 13.3896 125.691 12.9466 125.628C12.5012 125.565 11.9853 125.622 11.3991 125.797C10.8128 125.973 10.3532 126.208 10.0203 126.504C9.68488 126.8 9.47378 127.153 9.387 127.562C9.29697 127.969 9.32963 128.433 9.48498 128.951L9.839 130.134L15.1005 128.559Z" fill="#C6CED9"/>
<path d="M7.28626 120.778L6.08987 120.989L4.98151 114.703L6.17789 114.492L6.60727 116.927L13.2893 115.749L13.539 117.165L6.85689 118.343L7.28626 120.778Z" fill="#C6CED9"/>
<path d="M12.3381 108.335L12.428 109.879L4.27779 107.533L4.17376 105.747L11.9962 102.466L12.0862 104.01L5.86181 106.513L5.86544 106.575L12.3381 108.335ZM9.2037 108.467L8.95841 104.255L10.1205 104.187L10.3658 108.399L9.2037 108.467ZM3.46962 107.228L1.6366 106.458L1.5562 105.077L3.40807 106.171L3.46962 107.228Z" fill="#C6CED9"/>
<path d="M12.0417 98.7533L4.05527 98.2881L4.13953 96.8413L7.80909 97.0551L7.81477 96.9576L4.32669 93.628L4.42957 91.8615L7.83346 95.1587L12.4176 92.2993L12.3163 94.0386L8.75367 96.2218L9.74722 97.1679L12.126 97.3065L12.0417 98.7533Z" fill="#C6CED9"/>
<path d="M12.3115 74.9253L10.8217 74.3855L11.2753 75.9076L10.3453 76.1267L10.0709 74.5644L8.98317 75.7189L8.32651 75.0248L9.54192 74.0023L8.00058 73.6347L8.27282 72.7253L9.76374 73.2614L9.31016 71.7392L10.2402 71.5202L10.5134 73.0862L11.6023 71.928L12.259 72.622L11.0436 73.6445L12.5838 74.0159L12.3115 74.9253Z" fill="#C6CED9"/>
<path d="M16.5126 55.873L15.4606 55.2655L18.652 49.7379L19.7041 50.3453L18.4677 52.4867L24.3438 55.8792L23.6251 57.1242L17.749 53.7316L16.5126 55.873Z" fill="#C6CED9"/>
<path d="M28.3807 49.5884L27.457 50.8292L22.7219 43.7928L23.7902 42.3577L31.8914 44.8728L30.9677 46.1135L24.5907 44.0299L24.5534 44.08L28.3807 49.5884ZM25.895 47.6745L28.4143 44.2906L29.348 44.9857L26.8288 48.3696L25.895 47.6745Z" fill="#C6CED9"/>
<path d="M33.105 31.6803L38.924 37.1702L38.0394 38.1079L31.4889 37.1102L31.4434 37.1585L35.407 40.898L34.4125 41.9522L28.5935 36.4622L29.4835 35.5189L36.034 36.5221L36.0823 36.4709L32.1158 32.7287L33.105 31.6803Z" fill="#C6CED9"/>
<path d="M40.4719 25.2164L41.5821 24.2848L44.9417 28.2886C45.3099 28.7275 45.5301 29.2005 45.6022 29.7078C45.6763 30.2133 45.6054 30.7164 45.3897 31.2169C45.1724 31.7155 44.8143 32.174 44.3156 32.5925C43.8149 33.0126 43.3002 33.2865 42.7714 33.414C42.241 33.5395 41.7333 33.5219 41.2483 33.3611C40.7633 33.2004 40.3366 32.9006 39.9684 32.4617L36.6088 28.4579L37.719 27.5264L41.0007 31.4374C41.215 31.6927 41.4617 31.8733 41.7408 31.979C42.0219 32.0831 42.3129 32.1058 42.6137 32.0471C42.913 31.9864 43.2032 31.838 43.4845 31.602C43.7658 31.366 43.9623 31.1059 44.074 30.8218C44.1861 30.534 44.2143 30.2435 44.1586 29.9503C44.1029 29.657 43.9679 29.3827 43.7537 29.1274L40.4719 25.2164Z" fill="#C6CED9"/>
<path d="M50.6297 27.645L46.2336 20.9611L47.4444 20.1647L51.1729 25.8336L54.1167 23.8975L54.7843 24.9125L50.6297 27.645Z" fill="#C6CED9"/>
<path d="M63.0572 16.017C63.444 16.7873 63.6311 17.5195 63.6183 18.2137C63.6067 18.9043 63.4262 19.5195 63.0766 20.0594C62.7293 20.598 62.2427 21.0246 61.6167 21.339C60.9906 21.6534 60.3568 21.7896 59.715 21.7476C59.0743 21.7022 58.4724 21.4785 57.9092 21.0765C57.3471 20.6711 56.8733 20.0844 56.4876 19.3164C56.1007 18.5461 55.9131 17.8156 55.9247 17.125C55.9374 16.4309 56.1174 15.8144 56.4647 15.2758C56.8143 14.7359 57.3021 14.3088 57.9281 13.9944C58.5541 13.68 59.1868 13.5444 59.8263 13.5875C60.4681 13.6295 61.07 13.8532 61.632 14.2586C62.1953 14.6606 62.6703 15.2467 63.0572 16.017ZM61.7551 16.6709C61.4828 16.1287 61.1682 15.7141 60.8113 15.427C60.4556 15.1365 60.0809 14.9706 59.6872 14.9294C59.2923 14.8859 58.9005 14.9617 58.5119 15.1568C58.1232 15.352 57.8285 15.621 57.6276 15.9638C57.4256 16.3042 57.3337 16.7044 57.352 17.1644C57.3714 17.6209 57.5173 18.1202 57.7896 18.6625C58.0619 19.2047 58.376 19.6211 58.7317 19.9116C59.0886 20.1986 59.4645 20.3639 59.8593 20.4075C60.2531 20.4487 60.6442 20.3717 61.0329 20.1766C61.4215 19.9814 61.7168 19.7136 61.9189 19.3731C62.1198 19.0304 62.2105 18.6308 62.191 18.1743C62.1727 17.7143 62.0274 17.2132 61.7551 16.6709ZM57.1378 13.6307L57.1186 11.6427L58.3543 11.0221L58.0838 13.1556L57.1378 13.6307Z" fill="#C6CED9"/>
<path d="M67.8657 18.3706L65.1295 10.8531L66.4914 10.3574L67.7486 13.8115L67.8403 13.7781L69.516 9.25656L71.1788 8.65134L69.4994 13.0828L73.9407 16.1595L72.3036 16.7554L68.8877 14.3489L68.4126 15.6359L69.2275 17.875L67.8657 18.3706Z" fill="#C6CED9"/>
<path d="M85.6337 5.14296L87.3952 4.93708L90.4271 10.419L90.5202 10.4082L92.2062 4.37475L93.9676 4.16887L94.8964 12.1148L93.5151 12.2762L92.8771 6.81729L92.8034 6.8259L91.2427 12.5182L90.2107 12.6389L87.378 7.44824L87.3043 7.45686L87.9437 12.9274L86.5625 13.0889L85.6337 5.14296Z" fill="#C6CED9"/>
<path d="M105.24 8C105.24 8.86198 105.078 9.60026 104.756 10.2148C104.435 10.8268 103.998 11.2956 103.443 11.6211C102.891 11.9466 102.265 12.1094 101.564 12.1094C100.864 12.1094 100.236 11.9466 99.6813 11.6211C99.1293 11.293 98.6918 10.8229 98.3688 10.2109C98.0485 9.59635 97.8884 8.85937 97.8884 8C97.8884 7.13802 98.0485 6.40104 98.3688 5.78906C98.6918 5.17448 99.1293 4.70443 99.6813 4.37891C100.236 4.05339 100.864 3.89062 101.564 3.89062C102.265 3.89062 102.891 4.05339 103.443 4.37891C103.998 4.70443 104.435 5.17448 104.756 5.78906C105.078 6.40104 105.24 7.13802 105.24 8ZM103.783 8C103.783 7.39323 103.688 6.88151 103.498 6.46484C103.31 6.04557 103.05 5.72917 102.716 5.51563C102.383 5.29948 101.999 5.19141 101.564 5.19141C101.129 5.19141 100.745 5.29948 100.412 5.51563C100.078 5.72917 99.8168 6.04557 99.6266 6.46484C99.4391 6.88151 99.3454 7.39323 99.3454 8C99.3454 8.60677 99.4391 9.11979 99.6266 9.53906C99.8168 9.95573 100.078 10.2721 100.412 10.4883C100.745 10.7018 101.129 10.8086 101.564 10.8086C101.999 10.8086 102.383 10.7018 102.716 10.4883C103.05 10.2721 103.31 9.95573 103.498 9.53906C103.688 9.11979 103.783 8.60677 103.783 8Z" fill="#C6CED9"/>
<path d="M116.084 5.09543L115.155 13.0413L113.875 12.8917L110.763 7.0417L110.697 7.03399L110.065 12.4464L108.625 12.2781L109.554 4.33221L110.842 4.48277L113.949 10.3362L114.019 10.3443L114.652 4.92809L116.084 5.09543Z" fill="#C6CED9"/>
<path d="M121.114 14.2871L118.476 13.6619L120.321 5.87758L123.012 6.51537C123.785 6.69855 124.412 7.01173 124.893 7.45493C125.377 7.8962 125.7 8.44241 125.862 9.09355C126.023 9.7447 126.008 10.4744 125.817 11.2828C125.624 12.0936 125.309 12.7548 124.869 13.2661C124.432 13.7781 123.894 14.1229 123.255 14.3007C122.618 14.479 121.905 14.4745 121.114 14.2871ZM120.176 12.776L121.335 13.0508C121.877 13.1793 122.353 13.1877 122.762 13.0759C123.172 12.9616 123.515 12.7284 123.791 12.3764C124.068 12.0218 124.277 11.5468 124.418 10.9513C124.559 10.3558 124.585 9.84004 124.496 9.40403C124.407 8.96549 124.207 8.60633 123.896 8.32653C123.588 8.0448 123.17 7.84148 122.643 7.71656L121.442 7.4319L120.176 12.776Z" fill="#C6CED9"/>
<path d="M130.821 9.89914L131.237 8.75756L137.235 10.9406L136.819 12.0822L134.496 11.2365L132.175 17.6125L130.824 17.1208L133.145 10.7448L130.821 9.89914Z" fill="#C6CED9"/>
<path d="M139.071 20.4958L137.689 19.8015L143.796 13.9165L145.395 14.7194L144.325 23.1342L142.943 22.44L143.887 15.7981L143.831 15.77L139.071 20.4958ZM140.525 17.7155L144.295 19.6089L143.772 20.6491L140.002 18.7557L140.525 17.7155ZM144.465 13.3691L146.048 12.1666L147.283 12.7872L145.411 13.8442L144.465 13.3691Z" fill="#C6CED9"/>
<path d="M147.517 25.0298L151.913 18.3459L153.124 19.1423L151.104 22.2134L151.186 22.267L155.814 20.911L157.292 21.8834L152.735 23.1826L152.919 28.5823L151.463 27.625L151.354 23.448L150.038 23.8354L148.728 25.8262L147.517 25.0298Z" fill="#C6CED9"/>
<path d="M168.018 37.1775L169.23 36.1572L167.685 35.789L167.961 34.874L169.451 35.4175L168.995 33.8983L169.924 33.6766L170.202 35.2404L171.291 34.0894L171.943 34.7799L170.733 35.803L172.278 36.1713L172.003 37.0862L170.51 36.5399L170.968 38.062L170.039 38.2836L169.761 36.7198L168.669 37.868L168.018 37.1775Z" fill="#C6CED9"/>
<path d="M182.417 50.3419L183.469 49.7345L186.661 55.2621L185.609 55.8696L184.372 53.7282L178.496 57.1208L177.778 55.8758L183.654 52.4833L182.417 50.3419Z" fill="#C6CED9"/>
<path d="M181.926 63.7622L181.313 62.3418L189.775 61.7593L190.483 63.402L184.255 69.1603L183.642 67.7399L188.635 63.2591L188.61 63.2018L181.926 63.7622ZM184.826 62.5664L186.497 66.4402L185.428 66.9012L183.757 63.0275L184.826 62.5664Z" fill="#C6CED9"/>
<path d="M195.073 76.8076L187.409 79.1021L187.039 77.8672L191.178 72.6931L191.159 72.6295L185.939 74.1924L185.523 72.804L193.187 70.5096L193.559 71.752L189.415 76.9234L189.435 76.9908L194.659 75.4268L195.073 76.8076Z" fill="#C6CED9"/>
<path d="M196.987 86.4195L197.239 87.8467L192.092 88.7542C191.527 88.8537 191.008 88.8079 190.532 88.6167C190.057 88.428 189.657 88.1152 189.332 87.6781C189.009 87.2406 188.79 86.7013 188.677 86.0601C188.564 85.4164 188.584 84.8337 188.738 84.3121C188.895 83.79 189.164 83.3591 189.545 83.0194C189.927 82.6798 190.4 82.4602 190.964 82.3607L196.111 81.4531L196.363 82.8803L191.335 83.7669C191.007 83.8247 190.727 83.9481 190.496 84.1369C190.265 84.3284 190.1 84.569 190.001 84.8589C189.904 85.1484 189.887 85.474 189.951 85.8356C190.015 86.1972 190.141 86.4974 190.332 86.7362C190.525 86.9772 190.762 87.1469 191.044 87.2452C191.326 87.3436 191.631 87.3639 191.959 87.306L196.987 86.4195Z" fill="#C6CED9"/>
<path d="M189.805 94.0019L197.791 93.5367L197.876 94.9835L191.102 95.378L191.307 98.8955L190.094 98.9661L189.805 94.0019Z" fill="#C6CED9"/>
<path d="M193.661 110.579C192.801 110.529 192.073 110.324 191.478 109.966C190.886 109.611 190.444 109.147 190.151 108.574C189.858 108.004 189.732 107.369 189.773 106.67C189.813 105.971 190.012 105.354 190.37 104.819C190.729 104.287 191.224 103.877 191.854 103.591C192.486 103.307 193.231 103.19 194.089 103.239C194.949 103.29 195.676 103.492 196.268 103.848C196.863 104.206 197.307 104.67 197.6 105.24C197.892 105.813 198.018 106.449 197.978 107.148C197.937 107.847 197.738 108.463 197.381 108.995C197.024 109.53 196.529 109.94 195.897 110.224C195.267 110.51 194.522 110.629 193.661 110.579ZM193.746 109.124C194.352 109.159 194.868 109.094 195.295 108.929C195.725 108.766 196.056 108.524 196.288 108.204C196.523 107.884 196.654 107.507 196.679 107.072C196.704 106.638 196.619 106.248 196.422 105.903C196.229 105.558 195.928 105.278 195.52 105.064C195.115 104.853 194.61 104.729 194.004 104.694C193.398 104.659 192.881 104.723 192.451 104.885C192.024 105.051 191.693 105.294 191.458 105.614C191.226 105.934 191.097 106.312 191.071 106.746C191.046 107.18 191.13 107.57 191.324 107.915C191.52 108.26 191.821 108.538 192.226 108.75C192.634 108.964 193.14 109.089 193.746 109.124ZM198.688 106.645L200.419 107.623L200.339 109.003L198.626 107.702L198.688 106.645Z" fill="#C6CED9"/>
<path d="M189.219 113.566L197.097 114.955L196.846 116.382L193.226 115.744L193.209 115.84L196.287 119.552L195.98 121.295L192.981 117.625L188.096 119.933L188.399 118.217L192.191 116.462L191.314 115.407L188.967 114.993L189.219 113.566Z" fill="#C6CED9"/>
<path d="M191.79 135.568L191.088 137.196L184.824 137.081L184.787 137.167L189.169 141.644L188.467 143.272L181.121 140.103L181.672 138.827L186.719 141.003L186.748 140.935L182.599 136.738L183.01 135.783L188.922 135.926L188.951 135.857L183.894 133.676L184.445 132.399L191.79 135.568Z" fill="#C6CED9"/>
<path d="M179.513 151.118C178.766 150.687 178.208 150.178 177.837 149.592C177.467 149.008 177.28 148.395 177.275 147.752C177.27 147.111 177.442 146.487 177.792 145.88C178.142 145.274 178.597 144.812 179.156 144.494C179.717 144.18 180.342 144.036 181.034 144.062C181.726 144.092 182.444 144.322 183.189 144.752C183.935 145.183 184.493 145.69 184.863 146.273C185.234 146.86 185.422 147.474 185.428 148.115C185.433 148.758 185.26 149.383 184.91 149.99C184.559 150.596 184.105 151.057 183.547 151.373C182.988 151.69 182.362 151.834 181.67 151.804C180.978 151.778 180.259 151.549 179.513 151.118ZM180.241 149.857C180.767 150.16 181.258 150.334 181.714 150.377C182.17 150.424 182.575 150.357 182.926 150.175C183.28 149.995 183.566 149.716 183.783 149.339C184.001 148.963 184.099 148.576 184.079 148.179C184.06 147.784 183.917 147.399 183.649 147.025C183.382 146.654 182.986 146.317 182.46 146.014C181.935 145.71 181.444 145.535 180.987 145.488C180.531 145.444 180.126 145.512 179.772 145.693C179.421 145.875 179.136 146.154 178.919 146.531C178.701 146.907 178.601 147.293 178.62 147.689C178.64 148.086 178.784 148.469 179.051 148.84C179.319 149.214 179.716 149.553 180.241 149.857Z" fill="#C6CED9"/>
<path d="M176.606 161.962L170.189 157.184L170.959 156.15L177.581 156.381L177.621 156.328L173.25 153.074L174.115 151.911L180.532 156.688L179.758 157.729L173.135 157.493L173.093 157.549L177.467 160.806L176.606 161.962Z" fill="#C6CED9"/>
<path d="M166.131 161.722L167.991 159.751L173.81 165.241L171.913 167.252C171.367 167.83 170.783 168.216 170.158 168.411C169.534 168.61 168.9 168.616 168.255 168.431C167.61 168.245 166.986 167.867 166.382 167.297C165.776 166.725 165.361 166.121 165.138 165.485C164.913 164.85 164.884 164.212 165.049 163.569C165.213 162.929 165.573 162.313 166.131 161.722ZM167.909 161.665L167.091 162.532C166.709 162.937 166.464 163.345 166.356 163.755C166.25 164.167 166.281 164.581 166.447 164.996C166.616 165.413 166.923 165.831 167.368 166.251C167.813 166.671 168.247 166.952 168.669 167.092C169.093 167.235 169.504 167.241 169.902 167.112C170.3 166.986 170.685 166.726 171.057 166.332L171.904 165.434L167.909 161.665Z" fill="#C6CED9"/>
<path d="M165.077 172.323L165.858 173.254L160.969 177.356L160.188 176.426L162.082 174.836L157.721 169.639L158.822 168.715L163.183 173.912L165.077 172.323Z" fill="#C6CED9"/>
<path d="M151.776 174.17L153.068 173.32L155.111 181.551L153.616 182.534L146.864 177.4L148.156 176.55L153.436 180.689L153.488 180.655L151.776 174.17ZM153.457 176.818L149.932 179.136L149.292 178.164L152.817 175.846L153.457 176.818ZM155.251 182.404L155.501 184.376L154.345 185.136L154.366 182.985L155.251 182.404Z" fill="#C6CED9"/>
<path d="M143.626 179.217L147.216 186.366L145.921 187.016L144.272 183.732L144.184 183.775L143.045 188.461L141.464 189.255L142.617 184.659L137.849 182.118L139.406 181.336L143.078 183.33L143.4 181.997L142.331 179.867L143.626 179.217Z" fill="#C6CED9"/>
<path d="M122.856 190.897L123.133 192.457L124.224 191.303L124.879 191.999L123.663 193.018L125.207 193.383L124.934 194.299L123.441 193.757L123.893 195.276L122.97 195.495L122.688 193.936L121.597 195.09L120.942 194.394L122.162 193.374L120.614 193.01L120.887 192.094L122.38 192.636L121.932 191.116L122.856 190.897Z" fill="#C6CED9"/>
<path d="M108.445 91.0001H124.325C129.281 91.0001 132.504 96.2155 130.288 100.648L118.621 123.982C117.492 126.24 115.183 127.667 112.658 127.667H99.2657C98.7206 127.667 98.1776 127.6 97.6488 127.468L85.1116 124.333M108.445 91.0001V74.3334C108.445 70.6515 105.46 67.6668 101.778 67.6668H101.46C99.7949 67.6668 98.445 69.0167 98.445 70.6818C98.445 73.0629 97.7402 75.3906 96.4194 77.3717L85.1116 94.3334V124.333M108.445 91.0001H101.778M85.1116 124.333H78.445C74.7631 124.333 71.7783 121.349 71.7783 117.667V97.6668C71.7783 93.9849 74.7631 91.0001 78.445 91.0001H86.7783" stroke="#6533E2" stroke-width="1.5" stroke-linecap="round" stroke-linejoin="round"/>
</svg>
